<svg width="211" height="110" viewBox="0 0 211 110" fill="none" xmlns="http://www.w3.org/2000/svg">
<path d="M38.608 76.76H80.712C81.8267 76.76 82.7893 77.1653 83.6 77.976C84.4107 78.7867 84.816 79.7493 84.816 80.864V103.816C84.816 104.931 84.4107 105.893 83.6 106.704C82.7893 107.515 81.8267 107.92 80.712 107.92H4.104C2.98933 107.92 2.02667 107.515 1.216 106.704C0.405333 105.893 0 104.931 0 103.816V5.624C0 4.50934 0.405333 3.54667 1.216 2.736C2.02667 1.92533 2.98933 1.52 4.104 1.52H34.504C35.6187 1.52 36.5813 1.92533 37.392 2.736C38.2027 3.54667 38.608 4.50934 38.608 5.624V76.76Z" fill="#262626"/>
<path d="M123.035 11.248C132.357 3.74933 144.669 0 159.971 0C175.272 0 187.533 3.8 196.755 11.4C206.077 18.8987 210.739 29.488 210.739 43.168V66.88C210.739 80.7627 206.128 91.352 196.907 98.648C187.787 105.843 175.475 109.44 159.971 109.44C144.467 109.44 132.104 105.843 122.882 98.648C113.762 91.352 109.202 80.7627 109.202 66.88V43.168C109.202 29.3867 113.813 18.7467 123.035 11.248ZM151.762 76.76C153.789 78.7867 156.525 79.8 159.971 79.8C163.416 79.8 166.152 78.7867 168.178 76.76C170.205 74.7333 171.219 71.6427 171.219 67.488V41.952C171.219 37.8987 170.205 34.8587 168.178 32.832C166.152 30.704 163.416 29.64 159.971 29.64C156.525 29.64 153.789 30.704 151.762 32.832C149.736 34.8587 148.723 37.8987 148.723 41.952V67.488C148.723 71.6427 149.736 74.7333 151.762 76.76Z" fill="#262626"/>
<path d="M65.12 23.92H121.12V79.92H65.12V23.92Z" fill="#2E6A2E"/>
<path fill-rule="evenodd" clip-rule="evenodd" d="M94.1381 8.92001C83.1304 15.5708 71.4118 16.1375 60.3993 12.0163L55.6303 17.7462C59.7559 22.4041 61.1736 27.6156 60.7196 33.2987C60.2411 39.2891 57.8029 45.8078 54.5983 53.2644C54.5984 53.2761 54.5984 53.2879 54.5983 53.2997C50.2207 63.4789 50.2715 71.0611 53.1035 76.504C55.9355 81.9469 61.6653 85.4343 69.2611 87.0384C69.2729 87.0382 69.2848 87.0382 69.2967 87.0384C75.3322 88.5588 81.1467 90.2666 85.8102 92.6973C89.4742 94.607 92.4944 97.0334 94.2092 100.206C95.9118 97.0367 98.8655 94.6075 102.502 92.6973C107.131 90.2654 112.902 88.559 118.944 87.0384C118.956 87.0382 118.968 87.0382 118.979 87.0384C126.569 85.4345 132.306 81.947 135.137 76.504C137.968 71.061 138.02 63.4789 133.642 53.2997C133.642 53.2879 133.642 53.2761 133.642 53.2644C130.438 45.8078 127.998 39.2894 127.521 33.2987C127.068 27.6154 128.479 22.404 132.61 17.7462L127.877 12.0163C116.864 16.1375 105.146 15.571 94.1381 8.92001ZM93.9601 25.1844C93.9957 25.1827 94.0313 25.1827 94.0669 25.1844C94.3163 25.172 94.5629 25.2419 94.7686 25.3834C94.9744 25.5248 95.128 25.73 95.2057 25.9673L101.078 44.1891L120.261 44.1538C120.5 44.1587 120.731 44.2387 120.922 44.3825C121.113 44.5263 121.254 44.7266 121.325 44.9549C121.396 45.1833 121.393 45.4282 121.317 45.6549C121.241 45.8816 121.096 46.0786 120.901 46.218L105.42 57.4286L111.363 75.6149C111.438 75.8428 111.438 76.0885 111.365 76.3169C111.292 76.5453 111.148 76.7446 110.955 76.8866C110.762 77.0286 110.529 77.106 110.289 77.1077C110.049 77.1094 109.815 77.0353 109.619 76.8961L94.1381 65.6142L78.6567 76.8961C78.4614 77.0353 78.2272 77.1094 77.9873 77.1077C77.7475 77.106 77.5143 77.0286 77.3211 76.8866C77.1278 76.7446 76.9842 76.5453 76.9109 76.3169C76.8376 76.0885 76.8383 75.8428 76.9128 75.6149L82.8562 57.4286L67.3393 46.218C67.1426 46.0768 66.996 45.8766 66.9208 45.6465C66.8456 45.4164 66.8457 45.1682 66.9211 44.9381C66.9965 44.708 67.1432 44.508 67.34 44.367C67.5368 44.2259 67.7734 44.1513 68.0155 44.1538L87.1625 44.1891L93.0348 25.9673C93.0997 25.7629 93.2209 25.581 93.3846 25.4425C93.5483 25.304 93.7478 25.2145 93.9601 25.1844Z" fill="#2E6A2E"/>
<path d="M75.78 42.18C75.78 39.18 77 36.62 79.44 34.5C81.92 32.34 85.44 31.26 90 31.26C94.6 31.26 98.1 32.34 100.5 34.5C102.9 36.62 104.1 39.16 104.1 42.12C104.1 44.32 103.46 46.28 102.18 48C100.94 49.68 99.02 51.28 96.42 52.8L100.92 57.48C101.92 56.44 102.9 54.8 103.86 52.56C104.02 52.16 104.42 51.96 105.06 51.96H114.12C114.44 51.96 114.7 52.06 114.9 52.26C115.1 52.46 115.2 52.72 115.2 53.04C115.2 54.2 114.38 56.02 112.74 58.5C111.14 60.98 109.58 63.02 108.06 64.62L115.2 72.06C115.44 72.3 115.56 72.58 115.56 72.9C115.56 73.18 115.44 73.42 115.2 73.62C115 73.82 114.76 73.92 114.48 73.92H102.24C101.76 73.92 101.26 73.72 100.74 73.32L99.12 71.88C96.16 73.8 92.28 74.76 87.48 74.76C82.68 74.76 78.82 73.66 75.9 71.46C72.98 69.22 71.52 66.02 71.52 61.86C71.52 57.18 74.12 53.38 79.32 50.46C76.96 47.94 75.78 45.18 75.78 42.18ZM84.6 61.02C84.6 62.14 84.96 63.02 85.68 63.66C86.44 64.3 87.44 64.62 88.68 64.62C89.92 64.62 90.94 64.38 91.74 63.9L86.46 58.44C85.22 59.04 84.6 59.9 84.6 61.02ZM92.58 42.6C92.58 41.96 92.36 41.44 91.92 41.04C91.52 40.64 91 40.44 90.36 40.44C89.76 40.44 89.24 40.66 88.8 41.1C88.36 41.5 88.14 42.1 88.14 42.9C88.14 43.66 88.68 44.54 89.76 45.54C91.64 44.7 92.58 43.72 92.58 42.6Z" fill="white"/>
</svg>
