<svg width="1250" height="192" viewBox="0 0 1250 192" fill="none" xmlns="http://www.w3.org/2000/svg">
<path d="M48.488 112.84H90.592C91.7067 112.84 92.6693 113.245 93.48 114.056C94.2907 114.867 94.696 115.829 94.696 116.944V139.896C94.696 141.011 94.2907 141.973 93.48 142.784C92.6693 143.595 91.7067 144 90.592 144H13.984C12.8693 144 11.9067 143.595 11.096 142.784C10.2853 141.973 9.88 141.011 9.88 139.896V41.704C9.88 40.5893 10.2853 39.6267 11.096 38.816C11.9067 38.0053 12.8693 37.6 13.984 37.6H44.384C45.4987 37.6 46.4613 38.0053 47.272 38.816C48.0827 39.6267 48.488 40.5893 48.488 41.704V112.84ZM141.731 37.6H174.715C178.363 37.6 180.643 39.272 181.555 42.616L215.451 139.592C215.552 139.896 215.603 140.403 215.603 141.112C215.603 141.72 215.248 142.379 214.539 143.088C213.931 143.696 213.171 144 212.259 144H184.139C181.099 144 179.123 142.733 178.211 140.2L174.562 130.168H141.883L138.235 140.2C137.323 142.733 135.347 144 132.307 144H104.187C103.275 144 102.464 143.696 101.755 143.088C101.147 142.379 100.843 141.72 100.843 141.112C100.843 140.403 100.893 139.896 100.995 139.592L134.891 42.616C135.803 39.272 138.083 37.6 141.731 37.6ZM149.635 100.528H166.811L158.147 72.256L149.635 100.528ZM265.938 144H244.202C242.277 144 240.656 143.443 239.338 142.328C238.122 141.112 237.413 139.744 237.21 138.224L223.226 41.4V40.944C223.226 40.032 223.53 39.272 224.138 38.664C224.848 37.9547 225.658 37.6 226.57 37.6H254.842C258.186 37.6 260.01 38.968 260.314 41.704L265.482 84.568L271.714 65.568C272.728 62.6293 274.45 61.16 276.882 61.16H292.386C294.818 61.16 296.541 62.6293 297.554 65.568L303.786 84.416L308.954 41.704C309.258 38.968 311.082 37.6 314.426 37.6H342.698C343.61 37.6 344.37 37.9547 344.978 38.664C345.688 39.272 346.042 40.032 346.042 40.944V41.4L332.058 138.224C331.856 139.744 331.096 141.112 329.778 142.328C328.562 143.443 326.992 144 325.066 144H303.33C300.189 144 298.112 142.632 297.098 139.896L284.634 108.736L272.17 139.896C271.157 142.632 269.08 144 265.938 144ZM425.376 37.6H452.888C454.002 37.6 454.965 38.0053 455.776 38.816C456.586 39.6267 456.992 40.5893 456.992 41.704V139.896C456.992 141.011 456.586 141.973 455.776 142.784C454.965 143.595 454.002 144 452.888 144H428.872C426.237 144 424.16 142.835 422.64 140.504L396.952 101.744V139.896C396.952 141.011 396.546 141.973 395.736 142.784C394.925 143.595 393.962 144 392.848 144H365.336C364.221 144 363.258 143.595 362.448 142.784C361.637 141.973 361.232 141.011 361.232 139.896V41.704C361.232 40.5893 361.637 39.6267 362.448 38.816C363.258 38.0053 364.221 37.6 365.336 37.6H389.352C392.189 37.6 394.266 38.7653 395.584 41.096L421.272 83.2V41.704C421.272 40.5893 421.677 39.6267 422.488 38.816C423.298 38.0053 424.261 37.6 425.376 37.6ZM707.938 47.328C717.26 39.8293 729.572 36.08 744.874 36.08C760.175 36.08 772.436 39.88 781.658 47.48C790.98 54.9787 795.642 65.568 795.642 79.248V102.96C795.642 116.843 791.031 127.432 781.81 134.728C772.69 141.923 760.378 145.52 744.874 145.52C729.37 145.52 717.007 141.923 707.786 134.728C698.666 127.432 694.106 116.843 694.106 102.96V79.248C694.106 65.4667 698.716 54.8267 707.938 47.328ZM736.666 112.84C738.692 114.867 741.428 115.88 744.874 115.88C748.319 115.88 751.055 114.867 753.082 112.84C755.108 110.813 756.122 107.723 756.122 103.568V78.032C756.122 73.9787 755.108 70.9387 753.082 68.912C751.055 66.784 748.319 65.72 744.874 65.72C741.428 65.72 738.692 66.784 736.666 68.912C734.639 70.9387 733.626 73.9787 733.626 78.032V103.568C733.626 107.723 734.639 110.813 736.666 112.84ZM910.221 138.984C910.525 139.592 910.677 140.251 910.677 140.96C910.677 141.669 910.322 142.379 909.613 143.088C909.005 143.696 908.245 144 907.333 144H876.173C873.032 144 870.853 142.632 869.637 139.896L856.565 110.864H850.333V139.896C850.333 141.011 849.928 141.973 849.117 142.784C848.306 143.595 847.344 144 846.229 144H816.437C815.322 144 814.36 143.595 813.549 142.784C812.738 141.973 812.333 141.011 812.333 139.896V41.704C812.333 40.5893 812.738 39.6267 813.549 38.816C814.36 38.0053 815.322 37.6 816.437 37.6H861.429C876.021 37.6 887.421 40.8933 895.629 47.48C903.837 53.9653 907.941 63.3387 907.941 75.6C907.941 87.76 902.469 97.336 891.525 104.328L910.221 138.984ZM850.333 65.872V81.984H861.429C863.658 81.984 865.381 81.2747 866.597 79.856C867.813 78.336 868.421 76.4613 868.421 74.232C868.421 72.0027 867.813 70.0773 866.597 68.456C865.482 66.7333 863.76 65.872 861.429 65.872H850.333ZM929.25 37.6H973.026C987.82 37.6 999.98 41.2987 1009.51 48.696C1019.13 55.992 1023.95 66.2267 1023.95 79.4V102.048C1023.95 115.829 1019.28 126.267 1009.96 133.36C1000.64 140.453 988.378 144 973.178 144H929.25C928.135 144 927.172 143.595 926.362 142.784C925.551 141.973 925.146 141.011 925.146 139.896V41.704C925.146 40.5893 925.551 39.6267 926.362 38.816C927.172 38.0053 928.135 37.6 929.25 37.6ZM963.146 67.24V114.36H973.026C976.471 114.36 979.207 113.347 981.234 111.32C983.362 109.192 984.426 106.101 984.426 102.048V79.4C984.426 71.2933 980.626 67.24 973.026 67.24H963.146ZM1077.11 114.36H1123.93C1125.04 114.36 1126 114.765 1126.81 115.576C1127.62 116.387 1128.03 117.349 1128.03 118.464V139.896C1128.03 141.011 1127.62 141.973 1126.81 142.784C1126 143.595 1125.04 144 1123.93 144H1044.73C1043.62 144 1042.66 143.595 1041.85 142.784C1041.04 141.973 1040.63 141.011 1040.63 139.896V41.704C1040.63 40.5893 1041.04 39.6267 1041.85 38.816C1042.66 38.0053 1043.62 37.6 1044.73 37.6H1122.71C1123.82 37.6 1124.79 38.0053 1125.6 38.816C1126.41 39.6267 1126.81 40.5893 1126.81 41.704V63.136C1126.81 64.2507 1126.41 65.2133 1125.6 66.024C1124.79 66.8347 1123.82 67.24 1122.71 67.24H1077.11V76.816H1119.37C1120.48 76.816 1121.44 77.2213 1122.25 78.032C1123.06 78.8427 1123.47 79.8053 1123.47 80.92V100.68C1123.47 101.795 1123.06 102.757 1122.25 103.568C1121.44 104.379 1120.48 104.784 1119.37 104.784H1077.11V114.36ZM1244.21 138.984C1244.51 139.592 1244.66 140.251 1244.66 140.96C1244.66 141.669 1244.31 142.379 1243.6 143.088C1242.99 143.696 1242.23 144 1241.32 144H1210.16C1207.02 144 1204.84 142.632 1203.62 139.896L1190.55 110.864H1184.32V139.896C1184.32 141.011 1183.91 141.973 1183.1 142.784C1182.29 143.595 1181.33 144 1180.21 144H1150.42C1149.31 144 1148.34 143.595 1147.53 142.784C1146.72 141.973 1146.32 141.011 1146.32 139.896V41.704C1146.32 40.5893 1146.72 39.6267 1147.53 38.816C1148.34 38.0053 1149.31 37.6 1150.42 37.6H1195.41C1210.01 37.6 1221.41 40.8933 1229.61 47.48C1237.82 53.9653 1241.93 63.3387 1241.93 75.6C1241.93 87.76 1236.45 97.336 1225.51 104.328L1244.21 138.984ZM1184.32 65.872V81.984H1195.41C1197.64 81.984 1199.37 81.2747 1200.58 79.856C1201.8 78.336 1202.41 76.4613 1202.41 74.232C1202.41 72.0027 1201.8 70.0773 1200.58 68.456C1199.47 66.7333 1197.74 65.872 1195.41 65.872H1184.32Z" fill="#262626"/>
<rect x="521.302" y="31.3953" width="117.209" height="117.209" fill="#2E6A2E"/>
<path fill-rule="evenodd" clip-rule="evenodd" d="M582.038 0C558.998 13.9203 534.471 15.1063 511.422 6.48058L501.44 18.4734C510.075 28.2225 513.042 39.1303 512.092 51.0252C511.091 63.5633 505.987 77.2069 499.28 92.8138C499.28 92.8384 499.28 92.8631 499.28 92.8877C490.118 114.193 490.224 130.063 496.152 141.455C502.079 152.847 514.072 160.146 529.97 163.504C529.995 163.503 530.019 163.503 530.044 163.504C542.677 166.686 554.847 170.26 564.607 175.348C572.276 179.345 578.598 184.423 582.187 191.065C585.75 184.43 591.932 179.346 599.543 175.348C609.232 170.258 621.31 166.686 633.957 163.504C633.982 163.503 634.007 163.503 634.031 163.504C649.918 160.147 661.925 152.847 667.85 141.455C673.774 130.063 673.883 114.193 664.721 92.8877C664.721 92.8631 664.721 92.8384 664.721 92.8138C658.014 77.2069 652.907 63.5638 651.909 51.0252C650.962 39.1298 653.915 28.2223 662.561 18.4734L652.654 6.48058C629.604 15.1064 605.077 13.9206 582.038 0ZM581.665 34.0417C581.74 34.0382 581.814 34.0382 581.889 34.0417C582.411 34.0157 582.927 34.1621 583.358 34.4582C583.788 34.7543 584.11 35.1837 584.272 35.6804L596.563 73.819L636.713 73.7452C637.213 73.7555 637.698 73.9229 638.098 74.2239C638.498 74.5248 638.793 74.944 638.941 75.422C639.089 75.9 639.083 76.4126 638.924 76.887C638.765 77.3615 638.46 77.7739 638.054 78.0656L605.651 101.53L618.091 139.594C618.247 140.071 618.248 140.585 618.095 141.063C617.941 141.541 617.641 141.958 617.236 142.256C616.832 142.553 616.344 142.715 615.842 142.718C615.34 142.722 614.849 142.567 614.441 142.275L582.038 118.662L549.635 142.275C549.226 142.567 548.736 142.722 548.234 142.718C547.732 142.715 547.244 142.553 546.839 142.256C546.435 141.958 546.134 141.541 545.981 141.063C545.828 140.585 545.829 140.071 545.985 139.594L558.425 101.53L525.947 78.0656C525.536 77.7701 525.229 77.3511 525.071 76.8694C524.914 76.3877 524.914 75.8683 525.072 75.3868C525.23 74.9052 525.537 74.4865 525.949 74.1913C526.361 73.8961 526.856 73.7399 527.363 73.7452L567.438 73.819L579.729 35.6804C579.864 35.2527 580.118 34.8719 580.461 34.582C580.803 34.2921 581.221 34.1048 581.665 34.0417Z" fill="#2E6A2E"/>
<path d="M543.614 69.4046C543.614 63.1256 546.167 57.7674 551.274 53.3302C556.465 48.8093 563.833 46.5488 573.377 46.5488C583.005 46.5488 590.33 48.8093 595.353 53.3302C600.377 57.7674 602.888 63.0837 602.888 69.2791C602.888 73.8837 601.549 77.986 598.87 81.586C596.274 85.1023 592.256 88.4512 586.814 91.6326L596.233 101.428C598.326 99.2512 600.377 95.8186 602.386 91.1302C602.721 90.293 603.558 89.8744 604.898 89.8744H623.86C624.53 89.8744 625.074 90.0837 625.493 90.5023C625.912 90.9209 626.121 91.4651 626.121 92.1349C626.121 94.5628 624.405 98.3721 620.972 103.563C617.623 108.753 614.358 113.023 611.177 116.372L626.121 131.944C626.623 132.447 626.874 133.033 626.874 133.702C626.874 134.288 626.623 134.791 626.121 135.209C625.702 135.628 625.2 135.837 624.614 135.837H598.995C597.991 135.837 596.944 135.419 595.856 134.581L592.465 131.567C586.27 135.586 578.149 137.595 568.102 137.595C558.056 137.595 549.977 135.293 543.865 130.688C537.753 126 534.698 119.302 534.698 110.595C534.698 100.8 540.14 92.8465 551.023 86.7349C546.084 81.4605 543.614 75.6837 543.614 69.4046ZM562.074 108.837C562.074 111.181 562.828 113.023 564.335 114.363C565.926 115.702 568.019 116.372 570.614 116.372C573.209 116.372 575.344 115.87 577.019 114.865L565.967 103.437C563.372 104.693 562.074 106.493 562.074 108.837ZM578.777 70.2837C578.777 68.9442 578.316 67.8558 577.395 67.0186C576.558 66.1814 575.47 65.7628 574.13 65.7628C572.874 65.7628 571.786 66.2233 570.865 67.1442C569.944 67.9814 569.484 69.2372 569.484 70.9116C569.484 72.5023 570.614 74.3442 572.874 76.4372C576.809 74.6791 578.777 72.6279 578.777 70.2837Z" fill="white"/>
</svg>
