<svg width="1156" height="182" viewBox="0 0 1156 182" fill="none" xmlns="http://www.w3.org/2000/svg">
<path d="M12.92 143V38.12H37.24V121.72H84.36V143H12.92ZM88.1719 143L126.324 38.12H149.732L187.884 143H162.044L153.228 116.552L166.148 122.328H109.3L121.764 117.768L113.404 143H88.1719ZM123.132 113.36L115.684 103.024H159.764L152.316 113.36L134.228 59.248H141.22L123.132 113.36ZM184.953 38.12H210.489L230.857 118.832L225.081 118.68L247.881 38.12H267.945L290.441 118.984L284.817 119.136L305.337 38.12H330.265L298.953 143H275.849L254.569 67.912H260.649L239.065 143H216.113L184.953 38.12ZM343.193 143V38.12H374.353L415.697 122.176L410.833 123.24V38.12H432.721V143H403.233L360.217 55.448L365.081 54.384V143H343.193ZM642.449 90.56C642.449 82.048 643.716 74.448 646.249 67.76C648.884 61.072 652.481 55.3973 657.041 50.736C661.601 46.0747 666.871 42.528 672.849 40.096C678.929 37.5627 685.364 36.296 692.153 36.296C699.044 36.296 705.479 37.5627 711.457 40.096C717.436 42.528 722.705 46.0747 727.265 50.736C731.825 55.3973 735.372 61.072 737.905 67.76C740.54 74.448 741.857 82.048 741.857 90.56C741.857 99.072 740.54 106.672 737.905 113.36C735.372 120.048 731.825 125.723 727.265 130.384C722.705 135.045 717.436 138.643 711.457 141.176C705.479 143.608 699.095 144.824 692.305 144.824C685.415 144.824 678.929 143.608 672.849 141.176C666.871 138.643 661.601 135.045 657.041 130.384C652.481 125.723 648.884 120.048 646.249 113.36C643.716 106.672 642.449 99.072 642.449 90.56ZM667.225 90.56C667.225 96.032 667.833 100.795 669.049 104.848C670.367 108.901 672.14 112.296 674.369 115.032C676.599 117.768 679.233 119.795 682.273 121.112C685.313 122.429 688.607 123.088 692.153 123.088C695.7 123.088 698.993 122.429 702.033 121.112C705.073 119.795 707.708 117.768 709.937 115.032C712.167 112.296 713.889 108.901 715.105 104.848C716.423 100.795 717.081 96.032 717.081 90.56C717.081 85.088 716.423 80.3253 715.105 76.272C713.889 72.2187 712.167 68.824 709.937 66.088C707.708 63.352 705.073 61.3253 702.033 60.008C698.993 58.6907 695.7 58.032 692.153 58.032C688.607 58.032 685.313 58.6907 682.273 60.008C679.233 61.3253 676.599 63.352 674.369 66.088C672.14 68.824 670.367 72.2187 669.049 76.272C667.833 80.3253 667.225 85.088 667.225 90.56ZM761.639 143V38.12H801.463C808.86 38.12 815.497 39.5387 821.375 42.376C827.252 45.112 831.913 49.1147 835.359 54.384C838.804 59.552 840.527 65.784 840.527 73.08C840.527 80.2747 838.652 86.4053 834.903 91.472C831.255 96.5387 826.391 100.389 820.311 103.024L843.567 143H816.663L797.663 106.52H785.959V143H761.639ZM785.959 86.76H799.183C804.148 86.76 808.151 85.6453 811.191 83.416C814.231 81.1867 815.751 77.7413 815.751 73.08C815.751 68.4187 814.231 64.9733 811.191 62.744C808.151 60.5147 804.148 59.4 799.183 59.4H785.959V86.76ZM861.834 143V38.12H901.658C911.183 38.12 919.746 40.1973 927.346 44.352C934.946 48.5067 940.975 54.4853 945.434 62.288C949.893 70.0907 952.122 79.5147 952.122 90.56C952.122 101.504 949.893 110.928 945.434 118.832C940.975 126.635 934.946 132.613 927.346 136.768C919.746 140.923 911.183 143 901.658 143H861.834ZM886.154 121.72H899.378C904.951 121.72 909.815 120.605 913.97 118.376C918.226 116.045 921.519 112.549 923.85 107.888C926.181 103.227 927.346 97.4507 927.346 90.56C927.346 83.568 926.181 77.792 923.85 73.232C921.519 68.5707 918.226 65.1253 913.97 62.896C909.815 60.5653 904.951 59.4 899.378 59.4H886.154V121.72ZM971.826 143V38.12H1045.55V59.4H996.146V80.072H1038.4V100.136H996.146V121.72H1046.31V143H971.826ZM1068.31 143V38.12H1108.13C1115.53 38.12 1122.17 39.5387 1128.05 42.376C1133.92 45.112 1138.59 49.1147 1142.03 54.384C1145.48 59.552 1147.2 65.784 1147.2 73.08C1147.2 80.2747 1145.32 86.4053 1141.57 91.472C1137.93 96.5387 1133.06 100.389 1126.98 103.024L1150.24 143H1123.33L1104.33 106.52H1092.63V143H1068.31ZM1092.63 86.76H1105.85C1110.82 86.76 1114.82 85.6453 1117.86 83.416C1120.9 81.1867 1122.42 77.7413 1122.42 73.08C1122.42 68.4187 1120.9 64.9733 1117.86 62.744C1114.82 60.5147 1110.82 59.4 1105.85 59.4H1092.63V86.76Z" fill="#262626"/>
<rect x="492.538" y="37.2909" width="98.1525" height="98.1525" fill="#2E6A2E"/>
<path fill-rule="evenodd" clip-rule="evenodd" d="M543.399 11C524.105 22.657 503.566 23.6502 484.264 16.4269L475.905 26.4698C483.136 34.6339 485.621 43.7682 484.826 53.7292C483.987 64.2287 479.713 75.654 474.096 88.7234C474.097 88.7441 474.097 88.7647 474.096 88.7853C466.424 106.627 466.513 119.916 471.477 129.456C476.44 138.996 486.483 145.108 499.796 147.92C499.817 147.92 499.838 147.92 499.859 147.92C510.437 150.585 520.629 153.578 528.802 157.838C535.224 161.186 540.518 165.438 543.524 171C546.508 165.444 551.685 161.186 558.058 157.838C566.171 153.576 576.286 150.585 586.876 147.92C586.897 147.92 586.918 147.92 586.939 147.92C600.242 145.109 610.297 138.996 615.259 129.456C620.22 119.916 620.311 106.627 612.639 88.7853C612.638 88.7647 612.638 88.7441 612.639 88.7234C607.022 75.654 602.746 64.2291 601.91 53.7292C601.116 43.7678 603.59 34.6337 610.83 26.4698L602.533 16.4269C583.232 23.6503 562.692 22.6573 543.399 11ZM543.087 39.5069C543.149 39.504 543.212 39.504 543.274 39.5069C543.711 39.4852 544.143 39.6078 544.504 39.8557C544.865 40.1037 545.134 40.4633 545.27 40.8792L555.563 72.817L589.184 72.7552C589.603 72.7638 590.009 72.904 590.344 73.156C590.679 73.408 590.926 73.759 591.05 74.1593C591.174 74.5596 591.169 74.9888 591.036 75.3862C590.903 75.7835 590.648 76.1288 590.307 76.3731L563.173 96.0222L573.59 127.898C573.721 128.297 573.722 128.728 573.593 129.128C573.465 129.528 573.213 129.878 572.874 130.127C572.536 130.376 572.127 130.511 571.707 130.514C571.286 130.517 570.876 130.387 570.533 130.143L543.399 110.369L516.264 130.143C515.922 130.387 515.511 130.517 515.091 130.514C514.671 130.511 514.262 130.376 513.923 130.127C513.584 129.878 513.333 129.528 513.204 129.128C513.076 128.728 513.077 128.297 513.208 127.898L523.625 96.0222L496.428 76.3731C496.083 76.1257 495.826 75.7748 495.694 75.3714C495.563 74.9681 495.563 74.5331 495.695 74.1298C495.827 73.7266 496.084 73.3759 496.429 73.1287C496.774 72.8815 497.189 72.7507 497.613 72.7552L531.173 72.817L541.465 40.8792C541.579 40.521 541.791 40.2022 542.078 39.9594C542.365 39.7166 542.715 39.5598 543.087 39.5069Z" fill="#2E6A2E"/>
<path d="M512.756 104.897C512.756 100.41 513.912 96.5538 516.226 93.3288C518.61 90.1037 521.624 87.4747 525.27 85.4415L540.098 77.0284C541.711 76.117 543.113 75.2056 544.305 74.2942C545.496 73.3828 546.408 72.4012 547.039 71.3496C547.67 70.2279 547.985 68.9659 547.985 67.5637C547.985 65.7409 547.424 64.1634 546.303 62.8314C545.251 61.4292 543.709 60.7281 541.675 60.7281C539.712 60.7281 538.17 61.4292 537.048 62.8314C535.927 64.1634 535.366 65.7409 535.366 67.5637C535.366 69.667 536.137 71.5599 537.679 73.2425C539.222 74.855 541.08 76.9934 543.253 79.6575L579.009 122.775H559.027L529.582 87.019C526.988 83.864 524.744 80.8143 522.851 77.8697C521.028 74.9252 520.117 71.4898 520.117 67.5637C520.117 63.8479 521.028 60.6229 522.851 57.8887C524.674 55.0843 527.198 52.9109 530.423 51.3685C533.718 49.756 537.469 48.9498 541.675 48.9498C545.882 48.9498 549.528 49.721 552.612 51.2634C555.767 52.8058 558.186 54.9441 559.869 57.6784C561.621 60.4126 562.498 63.5324 562.498 67.0379C562.498 69.8423 561.972 72.3311 560.92 74.5045C559.939 76.6779 558.361 78.7461 556.188 80.7091C554.085 82.6021 551.351 84.5301 547.985 86.4931L534.524 94.3804C532.912 95.2918 531.58 96.5538 530.528 98.1663C529.547 99.7788 529.056 101.496 529.056 103.319C529.056 105.423 529.757 107.14 531.159 108.472C532.631 109.734 534.559 110.365 536.943 110.365C540.449 110.365 543.674 109.279 546.618 107.105C549.633 104.932 552.262 102.022 554.505 98.3766C556.819 94.6608 558.677 90.5244 560.079 85.9673L573.75 91.2255C571.928 95.432 569.789 99.4983 567.335 103.424C564.952 107.351 562.182 110.856 559.027 113.941C555.873 117.026 552.297 119.479 548.301 121.302C544.305 123.125 539.818 124.036 534.84 124.036C530.633 124.036 526.847 123.265 523.482 121.723C520.187 120.11 517.558 117.867 515.595 114.992C513.702 112.118 512.756 108.753 512.756 104.897Z" fill="white"/>
</svg>
